PathFileType	4	(X/Y/Z)	Kaydara	
DataRate	CameraRate	NumFrames	NumMarkers	Units	OrigDataRate	OrigDataStartFrame	OrigNumFrames	
240.00	240.00	4	72	mm	240.00	270	359	
Frame#	Time	Hips			RightUpLeg			RightLeg			RightFoot			RightFoot_End			LeftUpLeg			LeftLeg			LeftFoot			LeftFoot_End			Spine			Spine1			Spine2			Spine3			Neck			Head			Head_End			RightShoulder			RightArm			RightForeArm			RightHand			RightHandThumb1			RightHandThumb2			RightHandThumb3			RightHandThumb3_End			RightInHandIndex			RightHandIndex1			RightHandIndex2			RightHandIndex3			RightHandIndex3_End			RightInHandMiddle			RightHandMiddle1			RightHandMiddle2			RightHandMiddle3			RightHandMiddle3_End			RightInHandRing			RightHandRing1			RightHandRing2			RightHandRing3			RightHandRing3_End			RightInHandPinky			RightHandPinky1			RightHandPinky2			RightHandPinky3			RightHandPinky3_End			LeftShoulder			LeftArm			LeftForeArm			LeftHand			LeftHandThumb1			LeftHandThumb2			LeftHandThumb3			LeftHandThumb3_End			LeftInHandIndex			LeftHandIndex1			LeftHandIndex2			LeftHandIndex3			LeftHandIndex3_End			LeftInHandMiddle			LeftHandMiddle1			LeftHandMiddle2			LeftHandMiddle3			LeftHandMiddle3_End			LeftInHandRing			LeftHandRing1			LeftHandRing2			LeftHandRing3			LeftHandRing3_End			LeftInHandPinky			LeftHandPinky1			LeftHandPinky2			LeftHandPinky3			LeftHandPinky3_End			
		X1	Y1	Z1	X2	Y2	Z2	X3	Y3	Z3	X4	Y4	Z4	X5	Y5	Z5	X6	Y6	Z6	X7	Y7	Z7	X8	Y8	Z8	X9	Y9	Z9	X10	Y10	Z10	X11	Y11	Z11	X12	Y12	Z12	X13	Y13	Z13	X14	Y14	Z14	X15	Y15	Z15	X16	Y16	Z16	X17	Y17	Z17	X18	Y18	Z18	X19	Y19	Z19	X20	Y20	Z20	X21	Y21	Z21	X22	Y22	Z22	X23	Y23	Z23	X24	Y24	Z24	X25	Y25	Z25	X26	Y26	Z26	X27	Y27	Z27	X28	Y28	Z28	X29	Y29	Z29	X30	Y30	Z30	X31	Y31	Z31	X32	Y32	Z32	X33	Y33	Z33	X34	Y34	Z34	X35	Y35	Z35	X36	Y36	Z36	X37	Y37	Z37	X38	Y38	Z38	X39	Y39	Z39	X40	Y40	Z40	X41	Y41	Z41	X42	Y42	Z42	X43	Y43	Z43	X44	Y44	Z44	X45	Y45	Z45	X46	Y46	Z46	X47	Y47	Z47	X48	Y48	Z48	X49	Y49	Z49	X50	Y50	Z50	X51	Y51	Z51	X52	Y52	Z52	X53	Y53	Z53	X54	Y54	Z54	X55	Y55	Z55	X56	Y56	Z56	X57	Y57	Z57	X58	Y58	Z58	X59	Y59	Z59	X60	Y60	Z60	X61	Y61	Z61	X62	Y62	Z62	X63	Y63	Z63	X64	Y64	Z64	X65	Y65	Z65	X66	Y66	Z66	X67	Y67	Z67	X68	Y68	Z68	X69	Y69	Z69	X70	Y70	Z70	X71	Y71	Z71	X72	Y72	Z72	

270	1.121	3198.941	914.58397	126.699	3245.385261146838	887.8475906242772	51.1593784920062	3148.3843571391894	493.5427728259561	-51.661904377545696	3142.7388196831644	102.42205565186295	-129.5598593096065	2991.6337346805735	25.51262040013267	-41.29620205024274	3165.7761298101996	914.9300325260498	214.25446363530463	3074.490184622102	512.2940674432555	284.5627058771709	2993.9844370595492	86.95358462459373	361.71468395780096	2873.3360282841327	3.8477175870807874	238.936477636462	3137.277301251346	1033.4888984491881	76.50219785822462	3077.423538036787	1089.4361020154615	24.328900138643473	3011.914667986852	1140.6804218753618	-33.284160842942455	2945.2682314213407	1179.0588749864955	-92.67469696308784	2872.870788145507	1220.435469367396	-154.51727527362607	2805.5017558264576	1258.8306765942066	-208.36052226315869	2670.2504979901546	1340.3977206786951	-226.98501915005585	2910.3534467494696	1195.5057849811853	-156.85693906510858	2929.312739149974	1128.1192228791904	-242.13421593445187	2925.9370382311176	943.65854056797	-131.39563861058235	2859.087088164417	821.4716035884652	-152.5774954489939	2856.3387015402004	831.6292821276107	-152.73062652394646	2849.870145381761	832.3349322210938	-150.12361515842653	2845.475887287008	829.6278545331909	-148.12405567232796	2841.9070644886206	824.6348522760925	-146.29966583754813	2856.8532641636393	821.1011781445815	-152.3045853727407	2852.242796194206	808.6469023003428	-150.2535206506355	2847.053611632566	799.9496140944692	-147.65294333113243	2843.0080500622466	798.097723679319	-145.70124523454248	2839.106795523166	798.9630146620287	-143.85991118042605	2857.2199729882277	812.8338349979151	-151.8196505402518	2852.9219784124184	796.2145078031718	-149.5571344237954	2847.3204121322506	785.6735329798256	-146.6605873775124	2842.4687993709017	782.935205778933	-144.2777229380988	2838.2143173652794	783.6369355132744	-142.24925232171466	2857.6166188448356	807.2876881914046	-151.53968238777125	2854.1673518195075	787.5114763885089	-149.29912880922998	2849.3537696213066	777.276656358875	-146.7178433218889	2844.7105171864564	774.0791710394044	-144.38929496942902	2840.7275380410733	774.4754308217623	-142.46776825539752	2858.0504459022513	801.4380779142004	-151.19527705978666	2855.2195968986443	779.6117253494225	-148.96182908904086	2851.4872350734495	769.8686129526709	-146.81615184087556	2848.159530868007	766.7878042972796	-145.0796364794446	2844.665270727627	766.7080264043761	-143.35557278773078	2883.693500034322	1218.3414481856175	-110.09549005467447	2855.355508415649	1227.9058148706624	-5.871067388873951	2907.76033118879	1028.9424131028777	-29.105084865344	2887.3295442176945	860.7373216174369	-105.0331226062653	2886.600759194157	868.3376883403938	-111.87846757349955	2891.751979807779	858.2875782225235	-121.53200714958938	2895.3166395003477	848.0685233231494	-128.23761712657833	2898.2689628462094	836.7945836651189	-133.81315484255225	2885.8284567776827	858.2832434667886	-112.27622290813486	2886.1540851535183	839.1599601202608	-124.0141837373291	2889.715059447651	821.6235441434051	-133.08510386173006	2893.752334828698	812.5071412317059	-138.3229671458013	2898.3239475210767	806.1661837040775	-142.38750548831584	2885.9139993799035	849.9895523389365	-111.86402141257302	2886.276925206278	826.8524246330837	-123.0896589262879	2890.177048123913	806.6791224357733	-132.8964996741688	2895.0547909694174	795.1826131049319	-139.1719587846437	2900.060322161433	788.0024142633389	-143.5979906408024	2885.9321836726176	844.6361371882666	-111.26632955520635	2886.173923561489	819.3063990120785	-120.7875943228783	2889.587801733614	800.6990186631117	-129.22430396590826	2894.3004832075253	789.0657899083153	-135.2185525000274	2899.0106014986886	782.0568380098324	-139.35221118788223	2886.211075949308	838.8776263023851	-110.29206154702638	2886.4909575017455	812.149733815721	-118.4047801547624	2889.246508498521	795.7620082332032	-124.94599492110301	2892.694526276196	786.5570671806814	-129.21441521998315	2896.8730055391648	779.9341287069332	-132.81642217319094
271	1.125	3198.941	914.58397	126.699	3245.2985674962392	887.7378363800209	51.14485563515186	3148.226633804491	493.45551790909593	-51.69626413737122	3142.8089331799147	102.33398412814489	-129.60655520628904	2991.7074709952176	25.41856010784174	-41.341903040462554	3165.8524652096744	915.0407786021625	214.28280423694736	3074.5477885968917	512.397226346074	284.52194056503504	2994.0775768718545	87.04701395659585	361.65779562828783	2873.437548578626	3.932186913840945	238.8774344224845	3137.3273978965194	1033.4896803232502	76.44152525500971	3077.487456600753	1089.4086474021235	24.22711507271573	3012.000568584634	1140.6448240628004	-33.413237779744065	2945.337423641958	1178.9912124326831	-92.80454706496539	2872.9159278628085	1220.3309480572796	-154.64272366492153	2805.5256033489454	1258.698296769591	-208.47894735797473	2670.2104209990284	1340.1725715230427	-227.03677272427552	2910.251109404018	1195.1930336592256	-156.9422301336474	2928.877755626225	1127.3874058542972	-242.04640305471125	2924.765178515395	943.5599042407796	-129.86688441508278	2855.195102855589	822.125273666208	-143.8114218504127	2852.1669793713277	832.105170702569	-143.5971484105804	2845.5537551213984	832.8295151104181	-140.55439491023162	2841.0637019430687	830.171104342224	-138.22741840465164	2837.419255255302	825.2491678445336	-136.10957245824957	2852.656449831068	821.677956742886	-143.0431711785718	2847.672885112055	809.2842356661539	-140.18220137896506	2842.3158228137086	800.6856304009128	-137.06242958040096	2838.2411769803625	798.892391829543	-134.8946975295459	2834.366631654172	799.8044062955544	-132.94655981536866	2853.0539746469994	813.5081486925267	-142.5233526190885	2848.4087151371045	797.0006256372432	-139.45199933150377	2842.6293516683627	786.5800783868974	-135.9869855935079	2837.7452369313205	783.9186258779225	-133.34256520727013	2833.5212369852243	784.6744531983552	-131.19678321731186	2853.480938949601	808.029035370221	-142.23863826394347	2849.7439236058917	788.4102508281854	-139.26683456286383	2844.7814409121856	778.2932483646993	-136.18939294308126	2840.110060458743	775.1767413995343	-133.60819154561673	2836.157268930529	775.6271006940158	-131.5761921177426	2853.968188359219	802.2575240721204	-141.91828275663354	2850.9029667608274	780.6226255289575	-139.0261219892206	2847.06209939624	770.9932244112974	-136.48527598791512	2843.7190685011906	767.9808504734275	-134.56550656318777	2840.2545368323476	767.9543881606883	-132.7441760373561	2883.908538097518	1218.474872142499	-110.26852213242773	2855.71569950185	1228.4034977203692	-6.028783088119227	2907.8859904598266	1029.3812844816132	-28.783359711300516	2886.096409338734	860.8423602809385	-104.02409107573823	2884.410812843067	867.9476889755733	-110.6192975331967	2889.04777549575	857.7724054622375	-120.59628338257544	2892.3678095458845	847.5241060499642	-127.4975316790845	2895.2132969878985	836.2753396634223	-133.2108332257829	2883.9355208032416	858.0293188706157	-110.81395122268238	2883.76940746175	838.6855688281884	-122.0699439263713	2887.106122320885	821.1354351472692	-131.20076892389417	2891.0144143605917	812.0571115165068	-136.75438028165527	2895.4863089971045	805.7791091787641	-141.2681225618677	2884.352494927678	849.9074902829277	-110.35677911816816	2884.4150286701083	826.6482468177292	-121.08788123420393	2888.115913660246	806.4835435605333	-130.95621333248894	2892.8598641331614	795.0442841947039	-137.6107512852466	2897.7668946830445	787.9384679434156	-142.5273910258522	2884.6168301982316	844.6800384812253	-109.73531104795597	2884.8014170476686	819.3470346323011	-118.78014310057387	2888.088597023524	800.7714412991129	-127.26731410104126	2892.697162930658	789.2063349546969	-133.6255495335544	2897.326482444601	782.2734345461604	-138.2197150053291	2885.198031581611	839.0816322598447	-108.7815031119128	2885.6098485053076	812.4457408638214	-116.45525900819321	2888.33745810854	796.1213886588226	-123.03409897612143	2891.745095369833	786.9844800809803	-127.56666706246662	2895.8724656492063	780.439468053952	-131.5758328539512
272	1.129	3198.941	914.58397	126.699	3245.219268560936	887.6381862563974	51.13146777811036	3148.0719092720137	493.3789558956414	-51.72747289449862	3142.863205159605	102.25812101815976	-129.65442367497772	2991.765621060992	25.33635400193744	-41.38865329264093	3165.9224555397777	915.1413458870516	214.30857182147034	3074.588013867736	512.488831401509	284.4561814954335	2994.109461637715	87.12967109758353	361.5338482546781	2873.4783268226583	4.006254608024054	238.7505775872246	3137.3724806475575	1033.490318487931	76.38718771157737	3077.528248641216	1089.3666834762882	24.135763456369514	3012.056770207894	1140.5947509675004	-33.52492452223877	2945.3740025352436	1178.9149788691789	-92.91016870448838	2872.927049564549	1220.2245906939395	-154.73801561745012	2805.5155143455772	1258.5701915271277	-208.56313462442708	2670.162834531053	1339.9855028230268	-227.10171181448666	2910.119131369326	1194.8865823117642	-157.00064618740535	2928.426162221298	1126.6640063660443	-241.93578902502432	2923.676210249661	943.374915698752	-128.47137717811052	2851.868666077603	822.7945063392528	-135.465556830555	2848.7924287426217	832.8567916851531	-134.88181157309026	2842.2813087527993	833.6726544019751	-131.59062670512628	2837.851475389483	831.079237657702	-129.09708004756044	2834.247919302514	826.2125609716865	-126.84587883045845	2849.218276267637	822.4426758197101	-134.30016734273187	2844.1110117230355	810.1951328875898	-130.92909507852687	2838.7757029004383	801.6927942648406	-127.54432941911338	2834.7922389828905	799.9440400950108	-125.29558178545432	2831.0455476491056	800.8825087936176	-123.33686855507679	2849.5956259080303	814.2709473583809	-133.81988960904656	2844.818769866436	797.9049650540996	-130.2723609074907	2839.061017772491	787.5887308813764	-126.52516890591968	2834.2858903467777	784.980592960958	-123.78635960154962	2830.2012896711485	785.7651951157947	-121.63063450976327	2850.0103022385297	808.7868394516123	-133.57515530126418	2846.1411994303353	789.2908400388125	-130.2084608302769	2841.1956009841865	779.2637820510696	-126.89297206866992	2836.628311077358	776.1981843743223	-124.22492004162149	2832.80609807718	776.6753537323063	-122.1855598850623	2850.4963530983923	803.0046066978094	-133.32332254911776	2847.3052081150854	781.4760747182298	-130.1077848346674	2843.475399020041	771.9166407179521	-127.39037374682651	2840.2071013775803	768.9404050208287	-125.41405330186652	2836.857556228686	768.9371197848104	-123.59011458730714	2884.0859259895865	1218.5935394941905	-110.41191368429922	2856.051939785918	1228.9421239307585	-6.143337402048984	2908.0539818428097	1029.8658728127086	-28.495517781506464	2884.704994987951	860.8657819328968	-102.81362701279139	2882.160906062988	867.5232069478509	-109.14949014603305	2886.307624766207	857.1970624374759	-119.36756736562081	2889.382657361532	846.8942855530346	-126.41022689006411	2892.1063679364006	835.6433743085872	-132.21875894665092	2881.93362186838	857.7245982913204	-109.1598524998689	2881.273543486228	838.1556073822204	-119.92353411844695	2884.3669744286153	820.5580480250574	-129.06191428597813	2888.138964253684	811.4865206942815	-134.87220068634488	2892.5081234084455	805.2386165456561	-139.7683588012842	2882.634767303656	849.753379947375	-108.66442299140424	2882.369182591962	826.3558772103765	-118.89454564192835	2885.8438201219474	806.1601637768921	-128.7681082894689	2890.4421483464375	794.7390567288046	-135.73086955381032	2895.2459187872964	787.6710113584161	-141.0652401977694	2883.1119865926676	844.6372579983081	-108.02466222941746	2883.1858843607247	819.2745771420805	-116.59344195912229	2886.3164790634696	800.6933806342771	-125.08292397964463	2890.806148804025	789.1571615333851	-131.73727147801756	2895.348597707104	782.2651670315624	-136.72364387091744	2883.9567055787647	839.1801839119049	-107.09417794250461	2884.4276581097033	812.6013655353183	-114.33268207127824	2887.0937269805013	796.3060870601697	-120.9119683706334	2890.445526424935	787.2064839898209	-125.65984303274922	2894.513717811108	780.7070518352199	-130.01604913043408
273	1.133	3198.941	914.58397	126.699	3245.146420585202	887.5484807202005	51.118771195276445	3147.9250960640443	493.31281060061485	-51.76100668991526	3142.8984207922717	102.19426056279806	-129.70860063876253	2991.8049048945513	25.265967772061686	-41.44155114260444	3165.986940392071	915.2317582586019	214.33202529989308	3074.6144312745005	512.5691747289787	284.37085051727695	2994.0783274071964	87.20180113042252	361.3421141067578	2873.4566358399097	4.070218611732127	238.55510749289772	3137.4130564707207	1033.4914281111062	76.34003310310541	3077.552915415857	1089.3208796779888	24.058875688303655	3012.0902061952443	1140.543048001003	-33.61363904324163	2945.386417630255	1178.8466938265165	-92.98543312633018	2872.91487715772	1220.1367954955792	-154.79718523520202	2805.4844923956784	1258.4698620902482	-208.60778571471377	2670.1291208764087	1339.869485688141	-227.19273118763695	2909.9771431923846	1194.6166172943415	-157.03094110566556	2927.9770435977307	1125.9759122771509	-241.79879505179605	2922.68305836931	943.1255846804763	-127.21399005344611	2849.2888844211056	823.3896305292978	-128.1526093408452	2846.355930317728	833.7552653453374	-127.17783879381886	2840.1802557164356	834.7148811067366	-123.77564849331102	2835.9623278628615	832.1917095622933	-121.23974585651555	2832.516865866299	827.3580442841809	-118.98313167196926	2846.692266780967	823.2731001230665	-126.6623031546304	2841.6944433815106	811.2259865419358	-123.02519467572242	2836.568165324215	802.8034290263366	-119.579736760276	2832.7967721252776	801.0802825639428	-117.35373743949376	2829.28100196577	802.0237621190345	-115.45465062811154	2847.013106774584	815.0103301668781	-126.292254012138	2842.312392321642	798.7906133679239	-122.54482986238793	2836.7750893994353	788.5487002748433	-118.74697234136863	2832.2521484956546	785.9653434031994	-116.04307712910678	2828.418433857755	786.7524569362141	-113.95622386479079	2847.383597194517	809.4572376678483	-126.1310975785526	2843.540076856641	790.033756724302	-122.65462437050087	2838.7787050122597	780.0582223230983	-119.31120919142319	2834.4504649159994	777.0094894430509	-116.68545576952218	2830.8621547468274	777.4856845050939	-114.71493777907153	2847.827124896599	803.5861382850005	-125.99187077562301	2844.6283344300577	782.0709119374649	-122.74132968717794	2840.9335927847046	772.5317379899086	-120.02736979354293	2837.833634441294	769.5576456403622	-118.09438891732606	2834.6878225553164	769.5476518519042	-116.33861905444003	2884.2256037312504	1218.7052506183845	-110.51454838810584	2856.3633956194008	1229.5292787025712	-6.203580598131766	2908.1958175043424	1030.3567681654342	-28.121955654212275	2883.1457051803836	860.773065226926	-101.31661352519782	2879.917614013545	867.07073125556	-107.40892321207608	2883.6284063327707	856.5781744325498	-117.75762855926206	2886.4684891179213	846.19722285217	-124.86940229028227	2889.0550419091583	834.9134040494928	-130.71685474862713	2879.8603126593553	857.3614646444174	-107.2679330181924	2878.7267202598136	837.5747289763444	-117.56643591916202	2881.5615549175964	819.8942635398039	-126.65169602022513	2885.1925448207007	810.7950346413228	-132.63138980544062	2889.458332016967	804.5402853681961	-137.80431229222302	2880.76796973329	849.5036648344679	-106.74211243481348	2880.1522163719223	825.9551087131355	-116.50199747922755	2883.373547782873	805.6846859586642	-126.31543260205471	2887.8156189587066	794.2377203531827	-133.4815398936667	2892.513018530653	787.1658601427146	-139.118237855893	2881.402807472314	844.4727359408087	-106.08976751329995	2881.2986382410363	819.0471906922008	-114.21746928699532	2884.2385177794577	800.4172263423327	-122.65310741865729	2888.5934331071658	788.8647467801068	-129.50283545674955	2893.0434328723377	781.9732797063465	-134.77311021343442	2882.44579002684	839.1240481995463	-105.18175582921121	2882.8742682330903	812.5526643510802	-112.01940076805298	2885.4353070819025	796.2441179449269	-118.5552737922982	2888.7118846618864	787.1451272530413	-123.44551685200813	2892.7114568671855	780.6533412100812	-128.05313167715957
